<?xml version="1.0" encoding="UTF-8"?>
<!DOCTYPE svg PUBLIC "-//W3C//DTD SVG 1.1//EN" "http://www.w3.org/Graphics/SVG/1.1/DTD/svg11.dtd">
<!-- Creator: CorelDRAW 2020 (64 Bit) -->
<svg xmlns="http://www.w3.org/2000/svg" xml:space="preserve" width="188.513mm" height="57.8092mm" version="1.1" style="shape-rendering:geometricPrecision; text-rendering:geometricPrecision; image-rendering:optimizeQuality; fill-rule:evenodd; clip-rule:evenodd"
viewBox="0 0 1495.2 458.52"
 xmlns:xlink="http://www.w3.org/1999/xlink"
 xmlns:xodm="http://www.corel.com/coreldraw/odm/2003">
 <defs>
  <style type="text/css">
   <![CDATA[
    .fil0 {fill:#2E2E2D}
   ]]>
  </style>
 </defs>
 <g id="Camada_x0020_1">
  <metadata id="CorelCorpID_0Corel-Layer"/>
  <g id="_2060742970768">
   <g>
    <path class="fil0" d="M132.58 249.5l0 -116.84 41.98 0 0 181.64c-11.49,-5.95 -20.33,-15.14 -27.84,-25.68 -5.75,-8.5 -14.14,-25.51 -14.14,-39.12zm-132.58 -1.53c0,34.86 13.26,75.17 28.73,101.02 3.09,5.44 6.19,11.05 9.72,16.16 9.72,12.93 24.31,30.61 37.12,40.65 3.54,2.55 3.98,3.74 7.07,6.29 35.8,30.27 86.62,46.43 136.56,46.43l0 -95.07c9.28,-0.85 28.28,-13.1 35.36,-18.2 33.15,-25 52.59,-64.46 52.59,-111.74l0 -233.51 -45.96 0 0 249.5c0,13.61 -8.4,30.61 -14.58,39.12 -7.07,10.71 -15.91,19.56 -27.4,25.68l0 -227.9 -93.69 0.17c-4.86,-0.34 -9.72,-0.17 -14.58,-0.17 -12.82,0 -24.31,-2.55 -24.31,4.42l0 142.69c0,35.72 9.72,62.08 24.75,83.17 4.86,6.12 8.4,9.69 12.37,14.97 3.98,5.27 9.72,8.67 15.03,12.76 6.63,5.44 8.4,6.29 16.35,11.05 4.42,2.55 14.14,7.48 19.44,7.99l0 44.73c-29.61,-2.55 -79.55,-39.63 -97.67,-67.01 -3.09,-4.42 -4.42,-6.8 -7.51,-11.39 -4.86,-8.33 -8.4,-15.31 -12.37,-24.83 -6.63,-16.5 -12.37,-38.95 -12.37,-61.23l0 -199.16 174.57 0 0 -44.56 -219.2 0 0 247.97z"/>
    <path class="fil0" d="M1039.89 297.12l44.64 0 0 -152.9 11.49 0c2.21,8.33 45.52,96.26 53.03,114.29l13.26 28.4c1.77,3.74 3.54,5.61 4.42,10.2l52.15 0c6.63,0 14.14,1.87 14.14,-4.42l0 -217.69 -44.64 0 0 152.9 -11.49 0c-1.33,-5.27 -5.74,-13.27 -8.4,-19.22l-63.64 -133.68 -64.97 0 0 222.12z"/>
    <path class="fil0" d="M386.26 184.53c0,86.23 82.64,138.27 163.08,108 11.93,-4.42 21.66,-11.39 30.94,-19.39 13.26,-11.05 19,-19.9 27.84,-37.08 3.98,-7.82 18.56,-58.68 6.19,-58.68l-99.44 0c-7.51,0 -4.42,14.12 -4.42,34.52l61.87 0c-15.03,65.82 -138.33,68.37 -138.33,-27.38 0,-19.9 8.4,-37.42 17.68,-48.64 22.54,-26.7 65.41,-29.25 93.69,-9.01 7.07,5.1 17.68,17.35 19.89,27.38l49.06 0c-0.44,-19.39 -21.66,-46.94 -38.45,-59.53 -64.08,-47.79 -153.8,-20.24 -178.99,42.35 -5.3,12.76 -10.61,29.93 -10.61,47.45z"/>
    <path class="fil0" d="M1308.15 193.2c0,-29.08 3.98,-47.79 26.96,-65.14 40.22,-30.44 111.37,-6.97 111.37,52.21 0,21.26 -1.33,39.8 -19,57.31 -28.28,28.57 -89.27,27.89 -112.25,-18.37 -3.09,-6.29 -7.07,-16.67 -7.07,-26.02zm-47.73 -11.56c0,28.23 5.3,50.85 21.21,72.62 2.65,3.23 3.98,5.1 6.63,7.99l1.77 2.21c44.64,47.96 126.4,48.3 170.59,4.93 32.7,-32.31 44.64,-84.36 25.19,-129.94 -6.19,-15.48 -12.82,-24.32 -23.87,-35.38 -10.61,-10.71 -19.45,-16.84 -34.03,-23.47 -38.01,-16.84 -82.2,-11.73 -116.67,8.84 -3.54,2.04 -5.3,3.23 -8.4,5.95 -12.37,10.89 -22.98,20.07 -31.82,39.29 -5.74,13.1 -10.61,28.74 -10.61,46.94z"/>
    <path class="fil0" d="M739.81 183.17l-47.73 0 0 -69.22c24.75,0 55.24,-4.08 68.94,8.84 20.77,19.05 8.84,60.38 -21.21,60.38zm-93.69 113.95l45.96 0 0 -79.42c8.84,4.08 34.47,1.53 46.4,1.53l16.35 39.97c2.65,6.8 4.86,12.58 7.51,19.56 1.77,3.74 2.65,6.46 4.42,10.2 4.86,11.74 0.88,8.16 48.17,8.16 7.07,0 1.77,-5.78 -3.98,-19.39 -4.86,-12.24 -27.4,-63.61 -27.84,-68.71 37.57,-19.9 43.75,-62.25 29.17,-95.41 -11.49,-24.83 -39.77,-38.61 -71.15,-38.61l-95.02 0 0 222.12z"/>
    <path class="fil0" d="M917.03 116.84l13.26 0c0,10.37 17.24,75.51 17.24,86.4l-51.71 0 16.35 -77.21c0.88,-5.44 0,-9.18 4.86,-9.18zm-89.27 180.28l47.73 0c2.21,-9.18 3.98,-17.86 5.74,-27.38 1.77,-7.82 5.75,-20.92 5.75,-28.91l69.39 0c2.21,9.35 11.49,48.98 11.49,56.29l49.06 0c-17.24,-74.15 -36.24,-148.13 -53.48,-222.12l-83.53 0c0,8.5 -10.17,44.05 -12.37,55.27l-39.78 166.84z"/>
    <path class="fil0" d="M1090.28 426.88l12.82 0 0 -38.95c3.98,2.55 13.26,20.07 17.24,26.36 3.09,4.93 2.65,5.27 10.16,5.27l18.56 -31.97c2.21,-3.06 0.44,-0.85 1.77,-2.55l0 41.84 13.26 0 0 -66.33 -13.26 0c-1.77,7.99 -21.21,34.69 -22.98,41.84 -3.98,-2.72 -15.91,-23.81 -20.33,-31.46 -7.07,-10.88 -1.33,-10.37 -17.24,-10.37l0 66.33z"/>
    <path class="fil0" d="M637.28 426.88l13.26 0 0 -41.84c5.3,3.57 4.86,4.93 8.84,9.69l22.54 27.89c4.42,5.1 1.77,4.25 14.58,4.25l0 -66.33 -12.82 0 0 41.84 -26.96 -32.31c-8.84,-10.54 -5.75,-9.52 -19.45,-9.52l0 66.33z"/>
    <path class="fil0" d="M895.82 393.72c0,-29.93 44.64,-28.74 44.64,0 0,28.74 -44.64,29.76 -44.64,0zm21.21 34.52c19,0 36.24,-12.07 36.24,-33.16 0,-10.54 -1.33,-19.56 -11.05,-27.55 -22.1,-17.52 -58.78,-6.97 -60.55,25 -1.33,19.73 15.91,35.71 35.35,35.71z"/>
    <path class="fil0" d="M1020.89 396.61l-14.14 0 0 -24.49c23.86,0 28.73,-1.87 28.73,15.82 0,5.95 -7.96,8.67 -14.58,8.67zm-27.4 30.27l13.26 0 0 -18.71c20.33,0 16.35,-1.53 22.1,7.99 2.65,4.25 5.3,6.29 6.63,10.71l14.58 0c-1.33,-5.95 -9.72,-14.8 -13.26,-20.24 2.65,-3.57 13.26,-9.52 13.26,-21.6 0,-30.1 -32.26,-24.49 -56.57,-24.49l0 66.33z"/>
    <path class="fil0" d="M1206.95 426.88l50.82 0 0 -11.56 -36.24 0 0 -15.82c35.8,0 31.82,3.06 31.82,-11.56l-31.82 0 0 -15.82c40.66,0 36.24,3.23 36.24,-11.56l-50.82 0 0 66.33z"/>
    <path class="fil0" d="M535.19 400.86c0,9.69 4.86,18.37 11.93,22.62 14.14,8.84 46.85,9.52 46.85,-29.76 0,-38.27 3.98,-33.16 -14.14,-33.16 0,45.75 4.86,54.76 -19,54.76 -17.68,0 -12.82,-32.99 -12.82,-54.76l-12.82 0 0 40.31z"/>
    <path class="fil0" d="M1334.23 409.54c-13.7,15.48 -28.28,2.55 -37.57,0 -0.44,6.97 -2.21,4.59 -3.09,11.56 16.79,8.67 41.98,11.05 50.38,-3.23 17.68,-31.63 -35.8,-26.19 -35.8,-38.61 0,-15.99 27.84,-4.76 33.15,-4.25 0.44,-6.12 1.77,-4.76 3.09,-10.2 -5.3,-1.19 -11.05,-5.78 -21.65,-5.78 -31.38,0 -41.54,31.46 -7.96,39.63 11.93,2.89 14.14,1.19 19.45,10.89z"/>
    <path class="fil0" d="M799.04 426.88l14.14 0 0 -24.49c36.24,0 31.82,3.06 31.82,-11.56l-31.82 0 0 -18.71c41.1,0 36.24,3.23 36.24,-11.56l-50.38 0 0 66.33z"/>
    <path class="fil0" d="M741.14 426.88l14.58 0 0 -62.08c0,-3.23 -0.88,-4.25 -4.42,-4.25l-10.16 0 0 66.33z"/>
   </g>
  </g>
 </g>
</svg>
